<svg width="1183" height="551" viewBox="0 0 1183 551" fill="none" xmlns="http://www.w3.org/2000/svg">
<path d="M926.05 215.935C918.092 215.935 911.153 214.501 905.23 211.633C899.308 208.764 894.728 204.739 891.49 199.557C888.343 194.283 886.77 188.129 886.77 181.097C886.77 169.716 890.055 160.879 896.625 154.587C903.287 148.295 912.633 145.148 924.662 145.148C932.065 145.148 938.588 146.305 944.233 148.618C949.97 150.932 954.411 154.17 957.557 158.334C960.796 162.406 962.415 167.078 962.415 172.353C962.415 176.794 960.981 180.218 958.112 182.624C955.336 185.03 951.358 186.233 946.176 186.233H904.398C904.398 191.414 906.202 195.347 909.811 198.03C913.512 200.621 918.925 201.917 926.05 201.917C933.545 201.917 939.93 200.251 945.204 196.92C948.165 195.069 950.479 194.144 952.144 194.144C953.717 194.144 955.244 194.884 956.724 196.365C958.297 197.938 959.084 199.65 959.084 201.5C959.084 203.721 958.159 205.479 956.308 206.775C952.422 209.736 947.888 212.003 942.706 213.576C937.524 215.149 931.972 215.935 926.05 215.935ZM940.624 173.463C942.197 173.463 943.307 173.186 943.955 172.63C944.603 171.983 944.927 170.965 944.927 169.577C944.927 166.338 943.076 163.794 939.375 161.943C935.766 160.092 930.862 159.167 924.662 159.167C918.463 159.167 913.558 160.462 909.95 163.053C906.433 165.644 904.675 169.114 904.675 173.463H940.624Z" fill="#1E4E74"/>
<path d="M842.285 215.935C839.416 215.935 837.195 215.195 835.622 213.715C834.049 212.234 833.263 210.198 833.263 207.607V153.476C833.263 150.793 834.003 148.757 835.484 147.369C837.057 145.889 839.231 145.148 842.007 145.148C844.783 145.148 846.958 145.889 848.531 147.369C850.104 148.85 850.89 150.885 850.89 153.476V158.057C853.759 154.355 857.09 151.533 860.884 149.59C864.77 147.554 868.934 146.536 873.375 146.536H876.429C879.39 146.536 881.657 147.184 883.23 148.48C884.896 149.682 885.728 151.441 885.728 153.754C885.728 156.067 884.896 157.872 883.23 159.167C881.657 160.37 879.39 160.971 876.429 160.971H871.71C865.51 160.971 860.56 162.961 856.858 166.94C853.25 170.826 851.445 176.193 851.445 183.04V207.607C851.445 210.198 850.613 212.234 848.947 213.715C847.281 215.195 845.061 215.935 842.285 215.935Z" fill="#1E4E74"/>
<path d="M808.86 136.542C805.437 136.542 802.661 135.617 800.533 133.766C798.497 131.823 797.479 129.325 797.479 126.271C797.479 123.217 798.497 120.765 800.533 118.915C802.661 116.972 805.437 116 808.86 116C812.284 116 815.06 116.972 817.188 118.915C819.409 120.765 820.519 123.217 820.519 126.271C820.519 129.325 819.409 131.823 817.188 133.766C815.06 135.617 812.284 136.542 808.86 136.542ZM808.999 215.934C806.131 215.934 803.91 215.194 802.337 213.714C800.764 212.233 799.977 210.197 799.977 207.606V153.475C799.977 150.884 800.764 148.849 802.337 147.368C803.91 145.888 806.131 145.148 808.999 145.148C811.775 145.148 813.996 145.888 815.662 147.368C817.327 148.849 818.16 150.884 818.16 153.475V207.606C818.16 210.197 817.327 212.233 815.662 213.714C813.996 215.194 811.775 215.934 808.999 215.934Z" fill="#1E4E74"/>
<path d="M714.059 256.048C711.191 256.048 708.97 255.308 707.397 253.827C705.824 252.347 705.038 250.311 705.038 247.72V153.476C705.038 150.885 705.824 148.85 707.397 147.369C708.97 145.889 711.191 145.148 714.059 145.148C716.835 145.148 719.056 145.889 720.722 147.369C722.387 148.85 723.22 150.885 723.22 153.476V156.252C727.199 152.366 731.317 149.544 735.573 147.786C739.922 146.027 744.826 145.148 750.286 145.148C757.503 145.148 763.795 146.583 769.162 149.451C774.622 152.32 778.785 156.437 781.654 161.804C784.615 167.078 786.095 173.324 786.095 180.542C786.095 187.667 784.615 193.913 781.654 199.28C778.693 204.646 774.483 208.764 769.023 211.633C763.564 214.501 757.133 215.935 749.73 215.935C744.179 215.935 739.321 215.102 735.157 213.437C730.993 211.679 727.06 208.903 723.359 205.109L723.22 247.72C723.22 250.311 722.387 252.347 720.722 253.827C719.056 255.308 716.835 256.048 714.059 256.048ZM745.983 201.5C752.83 201.5 758.151 199.696 761.945 196.087C765.831 192.386 767.774 187.204 767.774 180.542C767.774 173.88 765.831 168.744 761.945 165.135C758.151 161.434 752.83 159.583 745.983 159.583C738.858 159.583 733.26 161.48 729.188 165.274C725.21 168.975 723.22 174.065 723.22 180.542C723.22 187.019 725.21 192.155 729.188 195.948C733.26 199.65 738.858 201.5 745.983 201.5Z" fill="#1E4E74"/>
<path d="M662.996 215.935C648.098 215.935 637.133 211.633 630.101 203.027C628.62 201.084 627.88 199.326 627.88 197.753C627.88 195.532 629.037 193.589 631.35 191.923C632.923 190.905 634.45 190.396 635.93 190.396C637.966 190.396 639.863 191.276 641.621 193.034C644.767 196.18 647.821 198.447 650.782 199.835C653.835 201.13 657.583 201.778 662.024 201.778C665.818 201.778 669.011 201.269 671.601 200.251C674.192 199.233 675.488 197.984 675.488 196.504C675.488 194.653 674.424 193.08 672.295 191.784C670.167 190.489 665.864 188.823 659.387 186.788C649.209 183.642 641.991 180.357 637.735 176.933C633.478 173.417 631.35 169.068 631.35 163.886C631.35 158.057 633.848 153.476 638.845 150.145C643.842 146.814 650.735 145.148 659.526 145.148C666.281 145.148 672.388 146.166 677.847 148.202C683.307 150.238 687.286 152.967 689.784 156.391C690.987 157.964 691.588 159.537 691.588 161.11C691.588 163.331 690.478 165.135 688.257 166.523C686.684 167.541 685.065 168.05 683.399 168.05C680.716 168.05 678.264 166.94 676.043 164.719C674.192 162.961 671.786 161.619 668.825 160.694C665.957 159.768 662.811 159.306 659.387 159.306C652.91 159.306 649.671 160.833 649.671 163.886C649.671 165.089 650.18 166.153 651.198 167.078C652.216 168.004 654.02 168.975 656.611 169.993C659.295 171.011 663.459 172.399 669.103 174.157C678.171 176.933 684.51 179.987 688.118 183.318C691.82 186.649 693.67 191.044 693.67 196.504C693.67 202.333 690.987 207.052 685.62 210.661C680.253 214.177 672.712 215.935 662.996 215.935Z" fill="#1E4E74"/>
<path d="M575.701 215.935C569.964 215.935 564.875 214.964 560.433 213.021C556.084 211.077 552.66 208.394 550.162 204.97C547.756 201.454 546.553 197.429 546.553 192.895C546.553 186.048 549.376 180.588 555.02 176.517C560.757 172.445 568.483 170.41 578.199 170.41C586.62 170.41 593.374 172.214 598.464 175.823V172.492C598.464 168.143 597.122 164.811 594.439 162.498C591.755 160.185 587.869 159.028 582.78 159.028C575.192 159.028 568.668 160.648 563.209 163.886C560.896 165.182 558.906 165.829 557.241 165.829C555.205 165.829 553.401 164.904 551.828 163.053C550.81 161.758 550.301 160.416 550.301 159.028C550.301 156.715 551.504 154.679 553.91 152.921C557.241 150.515 561.451 148.618 566.54 147.23C571.629 145.842 576.996 145.148 582.641 145.148C593.374 145.148 601.795 147.601 607.902 152.505C614.102 157.316 617.201 163.979 617.201 172.492V208.163C617.201 210.568 616.369 212.465 614.703 213.853C613.13 215.241 610.955 215.935 608.18 215.935C605.311 215.935 603.09 215.288 601.517 213.992C599.944 212.697 599.158 210.846 599.158 208.44V206.913C593.883 212.928 586.064 215.935 575.701 215.935ZM580.004 203.166C585.833 203.166 590.367 202.287 593.606 200.529C596.937 198.678 598.602 196.133 598.602 192.895C598.602 189.841 596.937 187.389 593.606 185.539C590.275 183.688 585.833 182.763 580.281 182.763C575.284 182.763 571.398 183.642 568.622 185.4C565.939 187.158 564.597 189.656 564.597 192.895C564.597 196.133 565.939 198.678 568.622 200.529C571.306 202.287 575.099 203.166 580.004 203.166Z" fill="#1E4E74"/>
<path d="M913.964 404.015V357.044H918.3L918.751 366.981H918.21C918.872 364.993 920.076 363.187 921.823 361.561C923.569 359.875 925.647 358.55 928.055 357.586C930.524 356.563 933.114 356.051 935.824 356.051C939.136 356.051 941.936 356.743 944.224 358.128C946.573 359.513 948.319 361.651 949.463 364.542C950.668 367.432 951.27 371.106 951.27 375.562V404.015H946.753V375.742C946.753 372.25 946.272 369.389 945.308 367.161C944.405 364.873 943.05 363.187 941.243 362.103C939.437 360.959 937.179 360.387 934.469 360.387C932.12 360.387 929.982 360.808 928.055 361.651C926.128 362.434 924.442 363.518 922.997 364.903C921.552 366.288 920.438 367.884 919.655 369.69C918.872 371.437 918.48 373.304 918.48 375.291V404.015H916.222C916.162 404.015 915.951 404.015 915.59 404.015C915.289 404.015 914.747 404.015 913.964 404.015Z" fill="#1E4E74"/>
<path d="M880.395 404.919C875.698 404.919 871.513 403.865 867.839 401.757C864.226 399.649 861.366 396.729 859.258 392.995C857.211 389.262 856.187 385.016 856.187 380.259C856.187 375.562 857.211 371.407 859.258 367.794C861.366 364.12 864.226 361.26 867.839 359.212C871.513 357.105 875.698 356.051 880.395 356.051C885.092 356.051 889.247 357.105 892.86 359.212C896.534 361.26 899.394 364.12 901.442 367.794C903.489 371.407 904.513 375.562 904.513 380.259C904.513 385.016 903.489 389.262 901.442 392.995C899.394 396.729 896.534 399.649 892.86 401.757C889.247 403.865 885.092 404.919 880.395 404.919ZM880.395 400.402C884.129 400.402 887.441 399.529 890.331 397.783C893.282 396.036 895.57 393.658 897.196 390.647C898.882 387.636 899.725 384.173 899.725 380.259C899.725 376.465 898.882 373.093 897.196 370.142C895.57 367.131 893.282 364.783 890.331 363.096C887.441 361.41 884.129 360.567 880.395 360.567C876.601 360.567 873.229 361.41 870.278 363.096C867.388 364.783 865.099 367.131 863.413 370.142C861.787 373.093 860.974 376.465 860.974 380.259C860.974 384.173 861.787 387.636 863.413 390.647C865.099 393.658 867.388 396.036 870.278 397.783C873.229 399.529 876.601 400.402 880.395 400.402Z" fill="#1E4E74"/>
<path d="M840.091 404.017V357.046H844.608V404.017H840.091ZM842.35 347.2C841.025 347.2 840.001 346.839 839.279 346.116C838.556 345.393 838.195 344.4 838.195 343.135C838.195 341.931 838.556 340.967 839.279 340.245C840.001 339.462 841.025 339.07 842.35 339.07C843.675 339.07 844.698 339.432 845.421 340.154C846.144 340.877 846.505 341.87 846.505 343.135C846.505 344.339 846.144 345.333 845.421 346.116C844.698 346.839 843.675 347.2 842.35 347.2Z" fill="#1E4E74"/>
<path d="M812.688 404.017V344.49H817.204V404.017H812.688ZM801.397 361.201V357.046H829.85V361.201H801.397Z" fill="#1E4E74"/>
<path d="M769.382 404.919C765.107 404.919 761.283 403.865 757.911 401.757C754.538 399.649 751.859 396.759 749.871 393.086C747.944 389.412 746.981 385.227 746.981 380.53C746.981 375.773 747.975 371.557 749.962 367.884C752.009 364.21 754.719 361.32 758.091 359.212C761.464 357.105 765.227 356.051 769.382 356.051C771.791 356.051 774.08 356.412 776.247 357.135C778.415 357.857 780.372 358.881 782.119 360.206C783.865 361.47 785.371 362.976 786.635 364.722C787.9 366.469 788.803 368.366 789.345 370.413L787.539 369.239L787.99 357.044H792.326V404.015H787.81V392.273L789.345 390.556C788.803 392.544 787.9 394.41 786.635 396.157C785.371 397.903 783.865 399.439 782.119 400.763C780.372 402.088 778.415 403.112 776.247 403.835C774.08 404.557 771.791 404.919 769.382 404.919ZM770.015 400.402C773.447 400.402 776.518 399.559 779.228 397.873C781.998 396.127 784.166 393.778 785.732 390.827C787.358 387.816 788.171 384.354 788.171 380.44C788.171 376.585 787.388 373.183 785.822 370.232C784.257 367.221 782.089 364.873 779.319 363.187C776.609 361.44 773.507 360.567 770.015 360.567C766.462 360.567 763.3 361.44 760.53 363.187C757.82 364.873 755.683 367.221 754.117 370.232C752.551 373.183 751.768 376.585 751.768 380.44C751.768 384.233 752.521 387.636 754.027 390.647C755.592 393.658 757.73 396.036 760.44 397.783C763.21 399.529 766.402 400.402 770.015 400.402Z" fill="#1E4E74"/>
<path d="M723.624 404.919C719.108 404.919 715.073 403.865 711.52 401.757C708.027 399.649 705.257 396.759 703.21 393.086C701.222 389.412 700.229 385.197 700.229 380.44C700.229 375.682 701.222 371.467 703.21 367.794C705.257 364.12 708.057 361.26 711.61 359.212C715.163 357.105 719.258 356.051 723.895 356.051C727.749 356.051 731.242 356.804 734.373 358.309C737.565 359.814 740.214 361.922 742.322 364.632L739.431 368.155C738.107 366.529 736.601 365.174 734.915 364.09C733.229 362.946 731.422 362.073 729.495 361.47C727.568 360.868 725.581 360.567 723.534 360.567C719.981 360.567 716.819 361.44 714.049 363.187C711.279 364.873 709.081 367.221 707.455 370.232C705.829 373.183 705.016 376.585 705.016 380.44C705.016 384.294 705.799 387.726 707.365 390.737C708.991 393.748 711.189 396.127 713.959 397.873C716.729 399.559 719.83 400.402 723.263 400.402C725.25 400.402 727.207 400.101 729.134 399.499C731.061 398.897 732.868 398.054 734.554 396.97C736.24 395.826 737.775 394.44 739.16 392.815L742.051 396.337C739.883 399.047 737.143 401.155 733.831 402.66C730.579 404.166 727.177 404.919 723.624 404.919Z" fill="#1E4E74"/>
<path d="M670.278 404.919C666.424 404.919 663.233 404.227 660.704 402.842C658.235 401.457 656.368 399.349 655.103 396.519C653.899 393.628 653.297 389.955 653.297 385.498V357.045H657.813V385.318C657.813 388.811 658.265 391.701 659.168 393.989C660.071 396.217 661.456 397.873 663.323 398.957C665.19 400.041 667.539 400.583 670.369 400.583C672.597 400.583 674.674 400.192 676.601 399.409C678.528 398.566 680.215 397.482 681.66 396.157C683.105 394.772 684.219 393.207 685.002 391.46C685.845 389.654 686.267 387.757 686.267 385.769V357.045H690.783V404.016H686.447L685.996 394.08H686.538C685.875 396.067 684.701 397.873 683.015 399.499C681.329 401.125 679.341 402.45 677.053 403.474C674.825 404.437 672.567 404.919 670.278 404.919Z" fill="#1E4E74"/>
<path d="M615.63 404.92C611.354 404.92 607.53 403.866 604.158 401.759C600.786 399.651 598.106 396.761 596.119 393.087C594.192 389.414 593.228 385.229 593.228 380.532C593.228 375.774 594.222 371.559 596.209 367.886C598.256 364.212 600.966 361.322 604.339 359.214C607.711 357.106 611.475 356.053 615.63 356.053C618.038 356.053 620.327 356.414 622.495 357.136C624.663 357.859 626.62 358.883 628.366 360.208C630.112 361.472 631.618 362.978 632.882 364.724C634.147 366.47 635.05 368.367 635.592 370.415L634.057 368.879V337.174H638.573V404.017H634.237L633.876 391.823L635.592 390.558C635.05 392.545 634.147 394.412 632.882 396.158C631.618 397.905 630.112 399.44 628.366 400.765C626.62 402.09 624.663 403.114 622.495 403.836C620.327 404.559 618.038 404.92 615.63 404.92ZM616.262 400.404C619.694 400.404 622.766 399.561 625.475 397.875C628.246 396.128 630.413 393.78 631.979 390.829C633.605 387.818 634.418 384.355 634.418 380.441C634.418 376.587 633.635 373.185 632.069 370.234C630.504 367.223 628.336 364.875 625.566 363.188C622.856 361.442 619.755 360.569 616.262 360.569C612.709 360.569 609.548 361.442 606.777 363.188C604.068 364.875 601.93 367.223 600.364 370.234C598.798 373.185 598.016 376.587 598.016 380.441C598.016 384.235 598.768 387.637 600.274 390.648C601.839 393.659 603.977 396.038 606.687 397.784C609.457 399.531 612.649 400.404 616.262 400.404Z" fill="#1E4E74"/>
<path d="M567.752 404.919C563.236 404.919 559.201 403.895 555.648 401.847C552.155 399.8 549.415 396.94 547.428 393.266C545.441 389.593 544.447 385.317 544.447 380.44C544.447 376.887 544.989 373.635 546.073 370.684C547.217 367.733 548.783 365.174 550.77 363.006C552.757 360.778 555.136 359.062 557.906 357.857C560.736 356.653 563.808 356.051 567.12 356.051C570.371 356.051 573.292 356.593 575.882 357.677C578.531 358.761 580.759 360.326 582.566 362.374C584.372 364.361 585.727 366.74 586.631 369.51C587.534 372.22 587.925 375.231 587.805 378.543L587.715 380.981H547.789V376.826H585.276L583.288 378.452V376.284C583.288 373.876 582.686 371.467 581.482 369.058C580.338 366.649 578.561 364.632 576.153 363.006C573.744 361.38 570.703 360.567 567.029 360.567C563.597 360.567 560.526 361.32 557.816 362.825C555.166 364.331 553.058 366.529 551.493 369.419C549.987 372.31 549.235 375.893 549.235 380.169C549.235 384.263 549.987 387.846 551.493 390.918C552.998 393.929 555.166 396.277 557.996 397.963C560.887 399.589 564.41 400.402 568.565 400.402C570.793 400.402 573.081 400.041 575.43 399.318C577.778 398.596 580.428 397.03 583.379 394.621L585.727 397.963C584.403 399.228 582.837 400.402 581.03 401.486C579.224 402.51 577.206 403.353 574.978 404.015C572.75 404.617 570.341 404.919 567.752 404.919Z" fill="#1E4E74"/>
<path d="M898.615 313.874V247.031H903.132V277.743L902.048 279.459C902.71 276.629 903.975 274.22 905.842 272.233C907.708 270.185 909.876 268.62 912.345 267.536C914.874 266.452 917.404 265.91 919.933 265.91C923.546 265.91 926.527 266.602 928.875 267.987C931.284 269.373 933.061 271.51 934.205 274.401C935.349 277.291 935.921 280.965 935.921 285.421V313.874H931.405V285.602C931.405 282.109 930.953 279.248 930.05 277.02C929.146 274.732 927.761 273.046 925.894 271.962C924.088 270.818 921.769 270.246 918.939 270.246C916.711 270.246 914.634 270.667 912.707 271.51C910.78 272.293 909.093 273.377 907.648 274.762C906.263 276.147 905.149 277.743 904.306 279.55C903.523 281.296 903.132 283.163 903.132 285.15V313.874H900.873C900.813 313.874 900.602 313.874 900.241 313.874C899.94 313.874 899.398 313.874 898.615 313.874Z" fill="#1E4E74"/>
<path d="M873.289 313.874V254.348H877.806V313.874H873.289ZM861.998 271.058V266.903H890.452V271.058H861.998Z" fill="#1E4E74"/>
<path d="M846.354 313.874V266.903H850.871V313.874H846.354ZM848.613 257.057C847.288 257.057 846.264 256.696 845.542 255.973C844.819 255.251 844.458 254.257 844.458 252.993C844.458 251.788 844.819 250.825 845.542 250.102C846.264 249.319 847.288 248.928 848.613 248.928C849.938 248.928 850.961 249.289 851.684 250.012C852.407 250.734 852.768 251.728 852.768 252.993C852.768 254.197 852.407 255.191 851.684 255.973C850.961 256.696 849.938 257.057 848.613 257.057Z" fill="#1E4E74"/>
<path d="M787.897 313.875L771.277 266.904H776.516L790.336 307.914L787.897 307.733L802.892 273.95H805.601L820.596 307.733L817.705 307.914L831.977 266.904H836.945L820.325 313.875H818.609L802.621 277.111H805.872L789.884 313.875H787.897Z" fill="#1E4E74"/>
<path d="M695.451 313.875L678.831 266.904H684.07L697.89 307.914L695.451 307.733L710.446 273.95H713.156L728.15 307.733L725.26 307.914L739.532 266.904H744.5L727.879 313.875H726.163L710.175 277.111H713.427L697.439 313.875H695.451Z" fill="#1E4E74"/>
<path d="M652.897 314.778C648.2 314.778 644.015 313.724 640.342 311.616C636.728 309.509 633.868 306.588 631.76 302.855C629.713 299.121 628.689 294.876 628.689 290.118C628.689 285.421 629.713 281.266 631.76 277.653C633.868 273.98 636.728 271.119 640.342 269.072C644.015 266.964 648.2 265.91 652.897 265.91C657.594 265.91 661.75 266.964 665.363 269.072C669.036 271.119 671.896 273.98 673.944 277.653C675.991 281.266 677.015 285.421 677.015 290.118C677.015 294.876 675.991 299.121 673.944 302.855C671.896 306.588 669.036 309.509 665.363 311.616C661.75 313.724 657.594 314.778 652.897 314.778ZM652.897 310.262C656.631 310.262 659.943 309.388 662.833 307.642C665.784 305.896 668.073 303.517 669.698 300.506C671.385 297.495 672.228 294.032 672.228 290.118C672.228 286.324 671.385 282.952 669.698 280.001C668.073 276.99 665.784 274.642 662.833 272.956C659.943 271.27 656.631 270.427 652.897 270.427C649.103 270.427 645.731 271.27 642.78 272.956C639.89 274.642 637.602 276.99 635.915 280.001C634.29 282.952 633.477 286.324 633.477 290.118C633.477 294.032 634.29 297.495 635.915 300.506C637.602 303.517 639.89 305.896 642.78 307.642C645.731 309.388 649.103 310.262 652.897 310.262Z" fill="#1E4E74"/>
<path d="M603.283 313.875V266.904H607.619L608.07 277.382H607.438C608.1 275.395 609.124 273.528 610.509 271.782C611.894 270.035 613.58 268.62 615.568 267.536C617.615 266.452 619.964 265.91 622.613 265.91C623.637 265.91 624.57 266 625.413 266.181C626.317 266.302 627.13 266.452 627.852 266.633L626.497 271.872C625.654 271.511 624.841 271.27 624.058 271.149C623.276 271.029 622.583 270.969 621.981 270.969C619.572 270.969 617.464 271.39 615.658 272.233C613.912 273.076 612.436 274.251 611.232 275.756C610.088 277.201 609.214 278.857 608.612 280.724C608.07 282.591 607.799 284.548 607.799 286.595V313.875H603.283Z" fill="#1E4E74"/>
<path d="M567.662 334.65C564.048 334.65 560.797 334.078 557.906 332.934C555.016 331.85 552.517 330.525 550.409 328.96L552.486 324.714C553.691 325.738 555.076 326.641 556.642 327.424C558.207 328.267 559.923 328.929 561.79 329.411C563.717 329.893 565.765 330.134 567.933 330.134C571.546 330.134 574.677 329.381 577.327 327.876C579.976 326.43 581.994 324.232 583.379 321.282C584.824 318.391 585.547 314.778 585.547 310.442V301.59L586.811 300.416C586.028 303.126 584.674 305.564 582.747 307.732C580.819 309.9 578.471 311.616 575.701 312.881C572.991 314.146 570.04 314.778 566.849 314.778C562.573 314.778 558.749 313.724 555.377 311.616C552.005 309.509 549.325 306.618 547.338 302.945C545.411 299.272 544.447 295.086 544.447 290.389C544.447 285.632 545.441 281.417 547.428 277.743C549.475 274.07 552.185 271.179 555.558 269.072C558.93 266.964 562.694 265.91 566.849 265.91C568.776 265.91 570.612 266.151 572.359 266.633C574.165 267.115 575.821 267.777 577.327 268.62C578.892 269.463 580.308 270.487 581.572 271.691C582.837 272.896 583.891 274.22 584.734 275.666C585.637 277.111 586.33 278.646 586.811 280.272L585.095 279.098L585.547 266.904H590.063V310.984C590.063 314.778 589.521 318.12 588.437 321.011C587.353 323.961 585.788 326.43 583.74 328.418C581.753 330.465 579.374 332.001 576.604 333.024C573.894 334.108 570.913 334.65 567.662 334.65ZM567.481 310.262C570.913 310.262 573.985 309.418 576.694 307.732C579.465 305.986 581.632 303.637 583.198 300.687C584.824 297.676 585.637 294.213 585.637 290.299C585.637 286.445 584.854 283.042 583.288 280.092C581.723 277.081 579.555 274.732 576.785 273.046C574.075 271.3 570.974 270.427 567.481 270.427C563.928 270.427 560.767 271.3 557.996 273.046C555.287 274.732 553.149 277.081 551.583 280.092C550.017 283.042 549.235 286.445 549.235 290.299C549.235 294.093 549.987 297.495 551.493 300.506C553.058 303.517 555.196 305.896 557.906 307.642C560.676 309.388 563.868 310.262 567.481 310.262Z" fill="#1E4E74"/>
<path d="M389.684 275.134C389.684 296.564 372.311 313.937 350.881 313.937C329.451 313.937 312.079 296.564 312.079 275.134C312.079 264.913 312.079 236.332 312.079 236.332C312.079 236.332 339.673 236.332 350.881 236.332C372.311 236.332 389.684 253.704 389.684 275.134Z" fill="url(#paint0_linear_127_222)"/>
<path d="M403.159 275.133C403.159 253.703 420.531 236.331 441.961 236.331C463.391 236.331 480.763 253.703 480.763 275.133C480.763 285.355 480.763 313.935 480.763 313.935C480.763 313.935 453.17 313.936 441.961 313.936C420.531 313.936 403.159 296.563 403.159 275.133Z" fill="url(#paint1_linear_127_222)"/>
<path d="M312.079 365.215C312.079 343.785 329.452 326.413 350.881 326.413C372.311 326.413 389.684 343.785 389.684 365.215C389.684 375.437 389.684 404.018 389.684 404.018C389.684 404.018 362.09 404.018 350.881 404.018C329.452 404.018 312.079 386.645 312.079 365.215Z" fill="url(#paint2_linear_127_222)"/>
<path d="M441.961 223.855C420.531 223.855 403.159 206.482 403.159 185.052C403.159 163.622 420.531 146.25 441.961 146.25C452.183 146.25 480.763 146.25 480.763 146.25C480.763 146.25 480.763 173.844 480.763 185.052C480.763 206.482 463.391 223.855 441.961 223.855Z" fill="url(#paint3_linear_127_222)"/>
<path d="M480.763 365.214C480.763 386.644 463.391 404.017 441.961 404.017C420.531 404.017 403.159 386.644 403.159 365.214C403.159 354.993 403.159 326.412 403.159 326.412C403.159 326.412 430.752 326.412 441.961 326.412C463.391 326.412 480.763 343.784 480.763 365.214Z" fill="url(#paint4_linear_127_222)"/>
<path d="M259.802 404.017C238.372 404.017 221 386.644 221 365.214C221 343.784 238.372 326.412 259.802 326.412C270.024 326.412 298.605 326.412 298.605 326.412C298.605 326.412 298.605 354.006 298.605 365.214C298.605 386.644 281.232 404.017 259.802 404.017Z" fill="url(#paint5_linear_127_222)"/>
<defs>
<linearGradient id="paint0_linear_127_222" x1="389.684" y1="236.332" x2="305.139" y2="299.121" gradientUnits="userSpaceOnUse">
<stop stop-color="#BFD834"/>
<stop offset="1" stop-color="#00AEAD"/>
</linearGradient>
<linearGradient id="paint1_linear_127_222" x1="403.159" y1="313.936" x2="487.704" y2="251.147" gradientUnits="userSpaceOnUse">
<stop stop-color="#BFD834"/>
<stop offset="1" stop-color="#00AEAD"/>
</linearGradient>
<linearGradient id="paint2_linear_127_222" x1="312.079" y1="404.018" x2="396.624" y2="341.229" gradientUnits="userSpaceOnUse">
<stop stop-color="#BFD834"/>
<stop offset="1" stop-color="#00AEAD"/>
</linearGradient>
<linearGradient id="paint3_linear_127_222" x1="480.763" y1="223.855" x2="417.975" y2="139.31" gradientUnits="userSpaceOnUse">
<stop stop-color="#BFD834"/>
<stop offset="1" stop-color="#00AEAD"/>
</linearGradient>
<linearGradient id="paint4_linear_127_222" x1="480.763" y1="326.412" x2="396.218" y2="389.201" gradientUnits="userSpaceOnUse">
<stop stop-color="#BFD834"/>
<stop offset="1" stop-color="#00AEAD"/>
</linearGradient>
<linearGradient id="paint5_linear_127_222" x1="298.605" y1="404.017" x2="235.816" y2="319.472" gradientUnits="userSpaceOnUse">
<stop stop-color="#BFD834"/>
<stop offset="1" stop-color="#00AEAD"/>
</linearGradient>
</defs>
</svg>
