<?xml version="1.0" standalone="no"?>
<!DOCTYPE svg PUBLIC "-//W3C//DTD SVG 1.1//EN" "http://www.w3.org/Graphics/SVG/1.1/DTD/svg11.dtd">
<svg xmlns="http://www.w3.org/2000/svg" width="749.6099853515625" height="409.7080078125" viewBox="0 0 749.61 409.708">
  <g id="ibis_acam_Logo_mit_Claim" data-name="ibis acam Logo mit Claim" transform="translate(-347.344 -92)">
    <g id="Gruppe_4486" data-name="Gruppe 4486" transform="translate(347.344 92)">
      <g id="Gruppe_4487" data-name="Gruppe 4487" transform="translate(0 -0.001)">
        <path id="Pfad_5838" data-name="Pfad 5838" d="M233.582,204.233c42.612,22.266.819,100.143-51.706,179.782H68.708s88.682-108.247,76.114-123.6C124,234.976,13.166,353.538.689,329.132c-12.948-25.188,160.18-162.791,232.893-124.9" transform="translate(0 -71.762)" fill="#0058a2"/>
        <path id="Pfad_5839" data-name="Pfad 5839" d="M428.3,80.15c-17.345,28.095-48.789,40.193-70.145,26.962-21.356-13.178-24.611-46.709-7.265-74.8,17.368-28.1,48.8-40.151,70.18-26.972,21.374,13.238,24.621,46.714,7.23,74.812" transform="translate(-123.336 0.001)" fill="#fcc700"/>
      </g>
    </g>
    <path id="Pfad_5835" data-name="Pfad 5835" d="M.8-8.522H28.494v7.85H10.777V6.634H27.35v7.85H10.777v7.959H28.494v7.85H.8Zm76,0V30.294H67.855L67.8,12.522l-7.36,17.772H53.954L46.539,12.74V30.294H37.653V-8.522h8.014l11.612,26.5,11.558-26.5Zm10.9,0h18.481q6.651,0,10.3,3.189a10.884,10.884,0,0,1,3.653,8.641,10.83,10.83,0,0,1-3.707,8.614q-3.707,3.216-10.249,3.216H97.949V30.294H87.7ZM104.818,7.506q5.779,0,5.779-4.089a3.7,3.7,0,0,0-1.39-3.135A7.252,7.252,0,0,0,104.818-.78H97.949V7.506ZM147.4,30.785a21.18,21.18,0,0,1-10.358-2.426,16.477,16.477,0,0,1-6.787-6.951,22.471,22.471,0,0,1-2.371-10.576A21.936,21.936,0,0,1,130.277.31a16.769,16.769,0,0,1,6.787-6.9,23.21,23.21,0,0,1,20.662,0,16.427,16.427,0,0,1,6.733,6.9A22.355,22.355,0,0,1,166.8,10.832a22.687,22.687,0,0,1-2.344,10.576,16.353,16.353,0,0,1-6.733,6.951A21.023,21.023,0,0,1,147.4,30.785Zm0-7.8a8.273,8.273,0,0,0,6.842-3.107q2.481-3.107,2.48-9.05,0-5.888-2.48-8.968a9.135,9.135,0,0,0-13.656-.027q-2.453,3.053-2.453,9,0,6,2.453,9.077A8.226,8.226,0,0,0,147.4,22.989ZM232.986-8.522l-13.9,38.816h-8.123L202.839,7.233l-8.287,23.061h-8.123L172.582-8.522h10.413l7.959,24.478,8.668-24.478H206.6l8.341,24.914,8.341-24.914Zm7.9,0h27.694v7.85H250.868V6.634h16.573v7.85H250.868v7.959h17.718v7.85H240.891Zm70.435,38.816H300.478l-5.016-12.92q-.872-2.181-4.089-2.181h-3.707v15.1H277.581V-8.522h18.045q7.033,0,10.576,3.026t3.544,8.641a11.163,11.163,0,0,1-2.1,6.787,11.269,11.269,0,0,1-5.915,4.061,6.058,6.058,0,0,1,2.944,1.526,8.213,8.213,0,0,1,2.072,3.216ZM293.99,7.561a8.6,8.6,0,0,0,4.743-1.009,3.535,3.535,0,0,0,1.472-3.135A3.6,3.6,0,0,0,298.76.2a8.774,8.774,0,0,0-4.77-.981h-6.433V7.561ZM320.267-8.522h10.249V30.294H320.267Zm55.716,0V30.294h-7.578L350.8,8.269V30.294h-9.54V-8.522h7.469l17.609,21.916V-8.522Zm45.249,16.9V27.841a31.488,31.488,0,0,1-6.951,2.181,40.348,40.348,0,0,1-7.878.763,23.709,23.709,0,0,1-10.985-2.4,16.837,16.837,0,0,1-7.169-6.9,21.547,21.547,0,0,1-2.508-10.658A21.2,21.2,0,0,1,388.249.337a17.12,17.12,0,0,1,7.087-6.924,22.5,22.5,0,0,1,10.685-2.426,28.169,28.169,0,0,1,7.932,1.09,17.133,17.133,0,0,1,6.079,3l-3.217,7.251a21.4,21.4,0,0,0-5.152-2.535A17.408,17.408,0,0,0,406.349-1q-5.179,0-7.714,2.917T396.1,10.832q0,6.215,2.644,9.213t8.15,3a24.563,24.563,0,0,0,5.125-.545V15.3h-6.76V8.378Zm29.821-16.9h18.481q6.651,0,10.3,3.189a10.884,10.884,0,0,1,3.653,8.641,10.829,10.829,0,0,1-3.707,8.614q-3.707,3.216-10.249,3.216H461.3V30.294H451.053ZM468.171,7.506q5.779,0,5.779-4.089a3.7,3.7,0,0,0-1.39-3.135A7.252,7.252,0,0,0,468.171-.78H461.3V7.506ZM492.158-8.522h27.694v7.85H502.135V6.634h16.573v7.85H502.135v7.959h17.718v7.85H492.158Zm55.225,39.306a21.18,21.18,0,0,1-10.358-2.426,16.478,16.478,0,0,1-6.787-6.951,22.471,22.471,0,0,1-2.371-10.576A21.936,21.936,0,0,1,530.265.31a16.769,16.769,0,0,1,6.787-6.9,23.21,23.21,0,0,1,20.662,0,16.427,16.427,0,0,1,6.733,6.9,22.356,22.356,0,0,1,2.344,10.522,22.687,22.687,0,0,1-2.344,10.576,16.353,16.353,0,0,1-6.733,6.951A21.023,21.023,0,0,1,547.383,30.785Zm0-7.8a8.272,8.272,0,0,0,6.842-3.107q2.481-3.107,2.481-9.05,0-5.888-2.481-8.968a9.135,9.135,0,0,0-13.656-.027q-2.453,3.053-2.453,9,0,6,2.453,9.077A8.226,8.226,0,0,0,547.383,22.989ZM576.55-8.522h18.481q6.651,0,10.3,3.189a10.884,10.884,0,0,1,3.653,8.641,10.83,10.83,0,0,1-3.707,8.614q-3.707,3.216-10.249,3.216H586.8V30.294H576.55ZM593.668,7.506q5.779,0,5.779-4.089a3.7,3.7,0,0,0-1.39-3.135A7.252,7.252,0,0,0,593.668-.78H586.8V7.506ZM617.655-8.522H627.9V22.007h16.41v8.287H617.655Zm35.327,0h27.694v7.85H662.959V6.634h16.573v7.85H662.959v7.959h17.718v7.85H652.982Z" transform="translate(416.277 470.923)" fill="#0058a2"/>
    <path id="Pfad_5840" data-name="Pfad 5840" d="M16.809,22.539A7.369,7.369,0,0,1,24.172,29.9a7.369,7.369,0,0,1-7.363,7.363A7.369,7.369,0,0,1,9.445,29.9a7.369,7.369,0,0,1,7.363-7.363ZM10.258,98V54.023H3.3V43.613h19.8V98Zm36.613-3-2.844,4.012h-7.16V23.352l12.7-3.047V45.7a20.864,20.864,0,0,1,11.07-3.1q11.934,0,19.246,7.541t7.313,19.322q0,13.66-7.363,21.607T59.871,99.016A21.278,21.278,0,0,1,46.871,95Zm2.691-38.441V84.949a9.4,9.4,0,0,0,7.566,3.3q9.191,0,13.025-4.367t3.834-13.965q0-16.555-15.844-16.555Q52.508,53.363,49.563,56.563Zm58.754-34.023A7.369,7.369,0,0,1,115.68,29.9,7.363,7.363,0,1,1,103.111,24.7,7.094,7.094,0,0,1,108.316,22.539ZM101.766,98V54.023H94.809V43.613h19.8V98Zm24.273-3.5,4.52-10.105a20.11,20.11,0,0,0,12.848,4.52q7.414,0,7.414-5.281a6.479,6.479,0,0,0-2.234-5.078q-2.234-1.98-8.684-4.672-14.066-5.84-14.066-16.352a12.842,12.842,0,0,1,5.383-10.994Q136.6,42.6,144.98,42.6a34.6,34.6,0,0,1,15.945,3.809l-3.656,9.852Q153.105,52.7,145.691,52.7q-6.652,0-6.652,5.281a4.746,4.746,0,0,0,2.184,3.758q2.184,1.676,9.344,4.494t10.309,6.83a15.231,15.231,0,0,1,3.148,9.7,14.234,14.234,0,0,1-5.611,11.908q-5.611,4.342-15.26,4.342a34.4,34.4,0,0,1-8.709-.889A42.721,42.721,0,0,1,126.039,94.5Zm109.738-1.93a12.288,12.288,0,0,1-6.018,4.646,22.913,22.913,0,0,1-8.963,1.8q-8.785,0-13.812-4.393t-5.027-12.467q0-9.445,7.084-14.777t20.135-5.332a22.233,22.233,0,0,1,5.281.762q0-9.6-12.137-9.6A26.9,26.9,0,0,0,210.336,55.6l-2.742-9.852a35.677,35.677,0,0,1,15.59-3.148q12.441,0,18.23,5.662T247.2,69.715V81.344q0,10.867,4.367,13.66a6.836,6.836,0,0,1-3.5,3.377,14.125,14.125,0,0,1-4.418.635,7.047,7.047,0,0,1-4.926-2.031A10.364,10.364,0,0,1,235.777,92.566Zm-1.219-20.16a26.977,26.977,0,0,0-4.875-.66q-15.031,0-15.031,9.852,0,7.313,8.48,7.313,11.426,0,11.426-11.426ZM303.57,47.93l-5.434,9.5q-4.469-4.215-11.984-4.215-7.211,0-11.4,4.8t-4.189,13.279q0,17.113,16.3,17.113A18.414,18.414,0,0,0,299.3,83.73l4.672,10A32.216,32.216,0,0,1,294.3,98.1a45.818,45.818,0,0,1-9.775.914q-12.594,0-19.881-7.338t-7.287-20.389q0-12.848,7.973-20.77T287.066,42.6A26.479,26.479,0,0,1,303.57,47.93ZM344.4,92.566a12.288,12.288,0,0,1-6.018,4.646,22.913,22.913,0,0,1-8.963,1.8q-8.785,0-13.812-4.393t-5.027-12.467q0-9.445,7.084-14.777T337.8,62.047a22.233,22.233,0,0,1,5.281.762q0-9.6-12.137-9.6A26.9,26.9,0,0,0,318.957,55.6l-2.742-9.852A35.677,35.677,0,0,1,331.8,42.6q12.441,0,18.23,5.662t5.789,21.455V81.344q0,10.867,4.367,13.66a6.836,6.836,0,0,1-3.5,3.377,14.125,14.125,0,0,1-4.418.635,7.047,7.047,0,0,1-4.926-2.031A10.364,10.364,0,0,1,344.4,92.566Zm-1.219-20.16a26.977,26.977,0,0,0-4.875-.66q-15.031,0-15.031,9.852,0,7.313,8.48,7.313,11.426,0,11.426-11.426ZM432.5,98V63.926q0-10.715-9.6-10.715a10.1,10.1,0,0,0-5.484,1.676,9.772,9.772,0,0,0-3.707,3.859V98h-12.7V61.945a8.369,8.369,0,0,0-2.488-6.373,9.779,9.779,0,0,0-7.008-2.361,9.924,9.924,0,0,0-5.205,1.777,12.149,12.149,0,0,0-4.088,3.91V98h-12.7V43.613h8.734l2.59,4.773A17.642,17.642,0,0,1,394.52,42.6q10.816,0,16.3,5.891a16.366,16.366,0,0,1,6.652-4.291A24.15,24.15,0,0,1,426,42.6q9.09,0,14.143,5.205T445.2,62.1V98Z" transform="translate(648 306)" fill="#0058a2"/>
  </g>
</svg>